<svg xmlns="http://www.w3.org/2000/svg" width="512" height="512" viewBox="0 0 512 512">
  <defs>
    <linearGradient id="bgi" x1="0" y1="0" x2="1" y2="1">
      <stop offset="0" stop-color="#0e1430"/><stop offset="0.5" stop-color="#191f44"/><stop offset="1" stop-color="#080a1c"/>
    </linearGradient>
    <radialGradient id="gi" cx="0.5" cy="0.46" r="0.55">
      <stop offset="0" stop-color="#47bfff" stop-opacity="0.4"/><stop offset="1" stop-color="#47bfff" stop-opacity="0"/>
    </radialGradient>
    <linearGradient id="hoodi" x1="0" y1="0" x2="0" y2="1">
      <stop offset="0" stop-color="#3a2f6e"/><stop offset="1" stop-color="#241b4a"/>
    </linearGradient>
    <radialGradient id="glassglow" cx="0.5" cy="0.5" r="0.5">
      <stop offset="0" stop-color="#9bf6ff"/><stop offset="1" stop-color="#36b4ff"/>
    </radialGradient>
    <filter id="softi" x="-60%" y="-60%" width="220%" height="220%"><feGaussianBlur stdDeviation="6"/></filter>
  </defs>
  <rect width="512" height="512" rx="112" fill="url(#bgi)"/>
  <rect width="512" height="512" rx="112" fill="url(#gi)"/>
  <g fill="#47bfff" opacity="0.16" font-family="monospace" font-size="44" font-weight="700">
    <text x="40" y="94">&gt;_</text><text x="402" y="476">{ }</text>
  </g>
  <!-- hoodie outer -->
  <path d="M256 96
           C150 96 120 190 120 286
           C120 360 150 430 150 512
           H362
           C362 430 392 360 392 286
           C392 190 362 96 256 96 Z" fill="url(#hoodi)"/>
  <!-- hood opening -->
  <path d="M256 132
           C182 132 168 210 168 270
           C168 322 200 360 256 360
           C312 360 344 322 344 270
           C344 210 330 132 256 132 Z" fill="#0c1024"/>
  <!-- face in shadow -->
  <ellipse cx="256" cy="262" rx="74" ry="86" fill="#3a4a63" opacity="0.55"/>
  <!-- glowing glasses -->
  <g filter="url(#softi)">
    <rect x="196" y="240" width="50" height="34" rx="15" fill="#47bfff"/>
    <rect x="266" y="240" width="50" height="34" rx="15" fill="#47bfff"/>
  </g>
  <rect x="196" y="240" width="50" height="34" rx="15" fill="url(#glassglow)"/>
  <rect x="266" y="240" width="50" height="34" rx="15" fill="url(#glassglow)"/>
  <line x1="246" y1="257" x2="266" y2="257" stroke="#9bf6ff" stroke-width="6" stroke-linecap="round"/>
  <g stroke="#0c1024" stroke-width="4" opacity="0.7" stroke-linecap="round">
    <line x1="206" y1="252" x2="226" y2="252"/><line x1="206" y1="263" x2="220" y2="263"/>
    <line x1="276" y1="252" x2="296" y2="252"/><line x1="276" y1="263" x2="290" y2="263"/>
  </g>
  <!-- drawstrings -->
  <line x1="232" y1="356" x2="226" y2="430" stroke="#cfd8ee" stroke-width="6" stroke-linecap="round"/>
  <line x1="280" y1="356" x2="286" y2="430" stroke="#cfd8ee" stroke-width="6" stroke-linecap="round"/>
  <circle cx="226" cy="430" r="7" fill="#cfd8ee"/><circle cx="286" cy="430" r="7" fill="#cfd8ee"/>
</svg>
